<?xml version="1.0" encoding="utf-8"?>
<!-- Generator: Adobe Illustrator 22.0.1, SVG Export Plug-In . SVG Version: 6.00 Build 0)  -->
<svg version="1.1" id="Layer_1" xmlns="http://www.w3.org/2000/svg" xmlns:xlink="http://www.w3.org/1999/xlink" x="0px" y="0px"
	 viewBox="0 0 1500 1500" style="enable-background:new 0 0 1500 1500;" xml:space="preserve">
<style type="text/css">
	.st0{fill:#00C7FF;}
	.st1{fill:#FFFFFF;}
</style>
<circle class="st0" cx="749.9" cy="750.5" r="727.5"/>
<g>
	<path class="st1" d="M991.7,734.1c-43.6-0.5-83,17.1-111.2,45.8c-5.1,5.1-13,6.3-19.2,2.6l-77-44.9c-5.2-3-8.4-8.6-8.4-14.6
		l-0.2-87.2c0-7.2,4.8-13.5,11.8-15.3C853.9,603.6,903,543.4,903,471.7c0-84-68.4-152.9-152.4-153.6
		c-85.4-0.7-154.8,68.4-154.8,153.6c0,71.8,49.2,132,115.8,148.9c7,1.8,11.9,8,11.9,15.2l0.2,88.2c0,6.1-3.2,11.7-8.5,14.7
		l-76.4,44.2c-6.3,3.6-14.1,2.5-19.2-2.7c-28.2-28.8-67.7-46.6-111.4-46.2c-84.2,0.9-152.4,70.2-151.9,154.4
		c0.4,84.3,68.8,152.5,153.1,152.7c84.8,0.3,154.1-68.8,154.1-153.6c0-14.4-2-28.4-5.7-41.7c-2-7,1-14.3,7.2-18l77.2-44.7
		c5.3-3.1,11.8-3,17.1,0l75.7,44.1c6.2,3.6,9.2,11,7.2,17.9c-3.8,13.4-5.9,27.6-5.9,42.3c0,84.3,69.5,153.7,153.8,153.6
		c84.4-0.1,152.9-68.4,153.3-152.8C1143.8,804.4,1075.8,735.1,991.7,734.1z"/>
	<path class="st1" d="M699.5,959c-28.9,76.6-102.9,131.1-189.6,131.1c-111.8,0-202.5-90.7-202.5-202.5s90.7-202.5,202.5-202.5
		c59.3,0,112.6,25.5,149.6,66.1l39.6-22.9l-0.1-51.1c-50.1-45-116.4-72.5-189.1-72.5C353.7,604.7,227,731.4,227,887.6
		s126.7,282.9,282.9,282.9c94.9,0,178.9-46.7,230.3-118.5C721.6,1024,707.7,992.6,699.5,959z"/>
	<path class="st1" d="M749.4,188.8c-156.3,0-282.9,126.7-282.9,282.9c0,41.9,9.1,81.7,25.5,117.5c5.9-0.4,11.9-0.5,17.9-0.5
		c28.9,0,56.8,4.1,83.2,11.7c-28.9-35-46.2-79.8-46.2-128.7c0-111.8,90.7-202.5,202.5-202.5s202.5,90.7,202.5,202.5
		c0,92.6-62.1,170.6-146.9,194.8l0.1,43.4l45.1,26.3c106.5-40.6,182.1-143.7,182.1-264.4C1032.3,315.4,905.7,188.8,749.4,188.8z"/>
	<path class="st1" d="M1016.6,606c-15.5,30.8-36.1,58.5-60.8,82c11.1-1.9,22.5-2.9,34.1-2.9c111.8,0,202.5,90.7,202.5,202.5
		s-90.7,202.5-202.5,202.5s-202.5-90.7-202.5-202.5c0-20,2.9-39.3,8.3-57.5L750.7,804l-36.9,21.4c-4.5,20-6.9,40.9-6.9,62.3
		c0,156.3,126.7,282.9,282.9,282.9s282.9-126.7,282.9-282.9C1272.8,740.4,1160.3,619.4,1016.6,606z"/>
</g>
<path class="st1" d="M749.9,53.6C365,53.6,53,365.6,53,750.5s312,696.9,696.9,696.9s696.9-312,696.9-696.9S1134.8,53.6,749.9,53.6z
	 M749.9,1357.8c-335.4,0-607.3-271.9-607.3-607.3s271.9-607.3,607.3-607.3s607.3,271.9,607.3,607.3S1085.3,1357.8,749.9,1357.8z"/>
<path class="st1" d="M749.9,154.2c-329.4,0-596.3,267-596.3,596.3s267,596.3,596.3,596.3s596.3-267,596.3-596.3
	S1079.2,154.2,749.9,154.2z M749.9,1332.2c-321.3,0-581.7-260.4-581.7-581.7s260.4-581.7,581.7-581.7s581.7,260.4,581.7,581.7
	S1071.2,1332.2,749.9,1332.2z"/>
</svg>
