<?xml version="1.0" encoding="utf-8"?>
<!-- Generator: Adobe Illustrator 22.0.1, SVG Export Plug-In . SVG Version: 6.00 Build 0)  -->
<svg version="1.1" id="Layer_1" xmlns="http://www.w3.org/2000/svg" xmlns:xlink="http://www.w3.org/1999/xlink" x="0px" y="0px"
	 viewBox="0 0 1500 1500" style="enable-background:new 0 0 1500 1500;" xml:space="preserve">
<style type="text/css">
	.st0{fill:url(#SVGID_1_);}
	.st1{fill:#FFFFFF;}
</style>
<linearGradient id="SVGID_1_" gradientUnits="userSpaceOnUse" x1="826.9946" y1="1476.9257" x2="674.0302" y2="51.0788">
	<stop  offset="0" style="stop-color:#00C7FF"/>
	<stop  offset="0.2807" style="stop-color:#00BEFF"/>
	<stop  offset="0.7459" style="stop-color:#00A4FF"/>
	<stop  offset="0.9944" style="stop-color:#0094FF"/>
</linearGradient>
<circle class="st0" cx="749.7" cy="756.3" r="724.7"/>
<g>
	<path class="st1" d="M990.6,739.9c-43.4-0.5-82.7,17-110.8,45.6c-5.1,5.1-12.9,6.2-19.1,2.6L784,743.5c-5.2-3-8.4-8.6-8.4-14.6
		l-0.2-86.9c0-7.1,4.8-13.4,11.7-15.2C853.3,610,902.2,550,902.2,478.6c0-83.7-68.1-152.3-151.8-153c-85-0.7-154.2,68.1-154.2,153
		c0,71.5,49.1,131.5,115.3,148.3c7,1.8,11.9,7.9,11.9,15.1l0.2,87.9c0,6.1-3.2,11.6-8.4,14.7l-76.1,44.1c-6.2,3.6-14.1,2.5-19.1-2.7
		c-28.1-28.7-67.5-46.4-110.9-46c-83.9,0.9-151.8,69.9-151.4,153.8c0.4,84,68.5,151.9,152.5,152.2c84.5,0.3,153.5-68.5,153.5-153
		c0-14.4-2-28.3-5.7-41.5c-1.9-6.9,1-14.3,7.2-17.9L742,789c5.3-3,11.7-3,17,0l75.4,44c6.2,3.6,9.1,10.9,7.2,17.8
		c-3.8,13.4-5.9,27.5-5.9,42.1c0,83.9,69.3,153.1,153.2,153c84.1-0.1,152.3-68.1,152.8-152.2C1142.1,810,1074.3,740.9,990.6,739.9z"
		/>
	<path class="st1" d="M699.5,964c-28.8,76.3-102.5,130.6-188.8,130.6c-111.4,0-201.7-90.3-201.7-201.7s90.3-201.7,201.7-201.7
		c59,0,112.2,25.4,149,65.8l39.4-22.8l-0.1-50.9c-49.9-44.9-115.9-72.2-188.3-72.2c-155.7,0-281.8,126.2-281.8,281.8
		s126.2,281.8,281.8,281.8c94.6,0,178.2-46.6,229.4-118C721.6,1028.8,707.7,997.5,699.5,964z"/>
	<path class="st1" d="M749.2,196.8c-155.7,0-281.8,126.2-281.8,281.8c0,41.8,9.1,81.4,25.4,117.1c5.9-0.4,11.9-0.5,17.8-0.5
		c28.7,0,56.5,4.1,82.8,11.7c-28.7-34.9-46-79.5-46-128.2c0-111.4,90.3-201.7,201.7-201.7S951,367.2,951,478.6
		c0,92.2-61.9,170-146.3,194l0.1,43.2l44.9,26.2c106.1-40.5,181.4-143.1,181.4-263.4C1031.1,322.9,904.9,196.8,749.2,196.8z"/>
	<path class="st1" d="M1015.3,612.3c-15.4,30.6-36,58.3-60.6,81.7c11-1.9,22.4-2.9,33.9-2.9c111.4,0,201.7,90.3,201.7,201.7
		s-90.3,201.7-201.7,201.7S787,1004.3,787,892.9c0-19.9,2.9-39.1,8.3-57.3l-44.7-26.1l-36.8,21.3c-4.5,20-6.9,40.7-6.9,62.1
		c0,155.7,126.2,281.8,281.8,281.8s281.8-126.2,281.8-281.8C1270.6,746.2,1158.5,625.7,1015.3,612.3z"/>
</g>
<path class="st1" d="M749.7,62.1c-383.4,0-694.2,310.8-694.2,694.2s310.8,694.2,694.2,694.2s694.2-310.8,694.2-694.2
	S1133.1,62.1,749.7,62.1z M749.7,1361.3c-334.1,0-605-270.9-605-605s270.9-605,605-605s605,270.9,605,605
	S1083.8,1361.3,749.7,1361.3z"/>
<path class="st1" d="M749.7,162.3c-328.1,0-594,266-594,594s266,594,594,594s594-266,594-594S1077.8,162.3,749.7,162.3z
	 M749.7,1335.8c-320,0-579.5-259.4-579.5-579.5s259.4-579.5,579.5-579.5s579.5,259.4,579.5,579.5S1069.7,1335.8,749.7,1335.8z"/>
</svg>
