<?xml version="1.0" encoding="utf-8"?>
<!-- Generator: Adobe Illustrator 22.0.1, SVG Export Plug-In . SVG Version: 6.00 Build 0)  -->
<svg version="1.1" id="Layer_1" xmlns="http://www.w3.org/2000/svg" xmlns:xlink="http://www.w3.org/1999/xlink" x="0px" y="0px"
	 viewBox="0 0 1024 1024" style="enable-background:new 0 0 1024 1024;" xml:space="preserve">
<style type="text/css">
	.st0{fill:#ED0012;}
	.st1{fill:#FFFFFF;}
</style>
<g id="XMLID_2_">
	<circle id="XMLID_120_" class="st0" cx="506.9" cy="509.7" r="486.9"/>
	<path id="XMLID_117_" class="st1" d="M506.9,54.7C255.7,54.7,52,258.4,52,509.7s203.7,454.9,454.9,454.9s454.9-203.7,454.9-454.9
		S758.2,54.7,506.9,54.7z M506.9,911.2c-221.8,0-401.6-179.8-401.6-401.6s179.8-401.6,401.6-401.6s401.6,179.8,401.6,401.6
		S728.7,911.2,506.9,911.2z"/>
	<path id="XMLID_115_" class="st1" d="M551.8,225h-85.2c-14.1,0-25.5,11.4-25.5,25.5v318.6h136.2V250.5
		C577.3,236.4,565.9,225,551.8,225z"/>
	<path id="XMLID_114_" class="st1" d="M368.3,225h-85.2c-14.1,0-25.5,11.4-25.5,25.5v318.6h136.2V250.5
		C393.8,236.4,382.4,225,368.3,225z"/>
	<path id="XMLID_116_" class="st1" d="M735.3,225h-85.2c-14.1,0-25.5,11.4-25.5,25.5v318.6h136.2V250.5
		C760.8,236.4,749.4,225,735.3,225z"/>
	<g id="XMLID_124_">
		<path id="XMLID_122_" class="st1" d="M257.8,601.2h78.1l40.4,128.4l41-128.4h76.9v192.1h-48.1l1-145.8l-50.3,145.8h-46
			l-49.1-145.8l1,145.8h-44.9V601.2z"/>
		<path id="XMLID_121_" class="st1" d="M744.4,743.5c-6.6,3.1-13.9,4.8-21.6,4.8c-28.2,0-51.1-22.9-51.1-51.1
			c0-28.2,22.9-51.1,51.1-51.1c7.7,0,15,1.7,21.6,4.8c6.8-14.9,16.7-28,28.9-38.6c-14.8-8.8-32-13.9-50.5-13.9
			c-54.5,0-98.7,44.2-98.7,98.7c0,54.5,44.2,98.7,98.7,98.7c18.4,0,35.7-5.1,50.5-13.9C761.1,771.5,751.1,758.4,744.4,743.5z"/>
		<path id="XMLID_113_" class="st1" d="M631,756.9c0-0.2,0.7-0.9,0.5-0.9H558v-45h57.3c-0.7-7-1.1-9.8-1.1-15c0-7.3,0.7-15,2.1-21
			H558v-38h73v-37H506v195h125V756.9z"/>
	</g>
</g>
</svg>
